<svg width="182" height="255" viewBox="0 0 182 255" fill="none" xmlns="http://www.w3.org/2000/svg">
<path d="M117.617 13.77L91 0L64.3826 13.77L34.751 18.2644L21.3226 45.0394L0 66.0769L4.88013 95.625L0 125.173L21.3226 146.211L34.751 172.986L64.3826 177.48L91 191.25L117.617 177.48L147.249 172.986L160.677 146.211L182 125.173L177.12 95.625L182 66.0769L160.677 45.0394L147.249 18.2644L117.617 13.77ZM136.691 32.7834L147.6 54.5381L164.92 71.6231L160.964 95.625L164.92 119.627L147.6 136.712L136.691 158.467L112.61 162.116L91 173.304L69.3903 162.116L45.3086 158.467L34.4001 136.712L17.0804 119.627L21.0515 95.625L17.0645 71.6231L34.4001 54.5381L45.3086 32.7834L69.3903 29.1337L91 17.9456L112.626 29.1337L136.691 32.7834Z" fill="#FFA240"/>
<path d="M27.2075 187.967V255L91 239.062L154.792 255V187.967L122.609 192.844L91 209.196L59.3908 192.844L27.2075 187.967Z" fill="#FFA240"/>
</svg>
