<svg width="286" height="153" viewBox="0 0 286 153" fill="none" xmlns="http://www.w3.org/2000/svg">
<path d="M216.477 16.3417C217.363 15.4528 218.066 14.3975 218.546 13.2361C219.025 12.0747 219.272 10.8299 219.272 9.57275C219.272 8.31564 219.025 7.07084 218.546 5.90942C218.066 4.748 217.363 3.69271 216.477 2.80379C215.59 1.91488 214.538 1.20976 213.38 0.728683C212.222 0.247607 210.981 0 209.728 0C208.474 0 207.233 0.247607 206.075 0.728683C204.917 1.20976 203.865 1.91488 202.979 2.80379L76.2723 129.903L16.2936 69.7285C15.4073 68.8396 14.3551 68.1345 13.1971 67.6534C12.0391 67.1723 10.798 66.9247 9.54457 66.9247C7.01319 66.9247 4.5855 67.9333 2.79554 69.7285C1.00559 71.5238 0 73.9586 0 76.4975C0 79.0363 1.00559 81.4712 2.79554 83.2665L69.5233 150.191C70.4087 151.082 71.4607 151.788 72.6188 152.27C73.7769 152.752 75.0184 153 76.2723 153C77.5261 153 78.7677 152.752 79.9258 152.27C81.0839 151.788 82.1358 151.082 83.0213 150.191L216.477 16.3417ZM136.251 150.191L119.169 133.039L132.648 119.521L143 129.903L269.706 2.80379C271.496 1.00855 273.924 -5.98174e-08 276.455 0C278.987 5.98174e-08 281.415 1.00855 283.204 2.80379C284.994 4.59903 286 7.0339 286 9.57275C286 12.1116 284.994 14.5465 283.204 16.3417L149.749 150.191C148.864 151.082 147.812 151.788 146.654 152.27C145.495 152.752 144.254 153 143 153C141.746 153 140.505 152.752 139.347 152.27C138.188 151.788 137.136 151.082 136.251 150.191Z" fill="#FFA240"/>
<path d="M83.0213 69.7285L100.104 86.8804L86.6246 100.399L69.5233 83.2665C67.7333 81.4712 66.7277 79.0363 66.7277 76.4975C66.7277 73.9586 67.7333 71.5238 69.5233 69.7285C71.3132 67.9333 73.7409 66.9247 76.2723 66.9247C78.8037 66.9247 81.2314 67.9333 83.0213 69.7285Z" fill="#FFA240"/>
</svg>
