<svg width="207" height="207" viewBox="0 0 207 207" fill="none" xmlns="http://www.w3.org/2000/svg">
<path d="M103.5 45.2812C103.5 43.5656 102.818 41.9203 101.605 40.7072C100.392 39.494 98.7469 38.8125 97.0312 38.8125C95.3156 38.8125 93.6703 39.494 92.4572 40.7072C91.244 41.9203 90.5625 43.5656 90.5625 45.2812V116.438C90.5629 117.578 90.8646 118.698 91.4371 119.684C92.0097 120.67 92.8327 121.487 93.8227 122.052L139.104 147.927C140.59 148.73 142.331 148.92 143.955 148.457C145.58 147.993 146.958 146.913 147.796 145.446C148.634 143.979 148.865 142.243 148.44 140.608C148.015 138.974 146.967 137.57 145.521 136.698L103.5 112.686V45.2812Z" fill="#FFA240"/>
<path d="M103.5 207C130.95 207 157.276 196.096 176.686 176.686C196.096 157.276 207 130.95 207 103.5C207 76.0501 196.096 49.7245 176.686 30.3144C157.276 10.9044 130.95 0 103.5 0C76.0501 0 49.7245 10.9044 30.3144 30.3144C10.9044 49.7245 0 76.0501 0 103.5C0 130.95 10.9044 157.276 30.3144 176.686C49.7245 196.096 76.0501 207 103.5 207ZM194.062 103.5C194.062 127.519 184.521 150.554 167.537 167.537C150.554 184.521 127.519 194.062 103.5 194.062C79.4813 194.062 56.4464 184.521 39.4626 167.537C22.4789 150.554 12.9375 127.519 12.9375 103.5C12.9375 79.4813 22.4789 56.4464 39.4626 39.4626C56.4464 22.4789 79.4813 12.9375 103.5 12.9375C127.519 12.9375 150.554 22.4789 167.537 39.4626C184.521 56.4464 194.062 79.4813 194.062 103.5Z" fill="#FFA240"/>
</svg>
